# AST/ASF file generated using VICON BodyLanguage
# -----------------------------------------------
:version 1.10
:name VICON
:units
  mass 1.0
  length 0.45
  angle deg
:documentation
   .ast/.asf automatically generated from VICON data using
   VICON BodyBuilder and BodyLanguage model FoxedUp or BRILLIANT.MOD
:root
   order TX TY TZ RX RY RZ
   axis XYZ
   position 0 0 0  
   orientation 0 0 0 
:bonedata
  begin
     id 1 
     name lhipjoint
     direction 0.610259 -0.730986 0.305356 
     length 2.50941 
     axis 0 0 0  XYZ
  end
  begin
     id 2 
     name lfemur
     direction 0.34202 -0.939693 0  
     length 7.48822  
     axis 0 0 20  XYZ
    dof rx ry rz
    limits (-160.0 20.0)
           (-70.0 70.0)
           (-60.0 70.0)
  end
  begin
     id 3 
     name ltibia
     direction 0.34202 -0.939693 0   
     length 7.60141   
     axis 0 0 20   XYZ
    dof rx
    limits (-10.0 170.0)
  end
  begin
     id 4 
     name lfoot
     direction 0.0673488 -0.185039 0.980421   
     length 2.04049   
     axis -90 7.62852e-016 20   XYZ
    dof rx rz
    limits (-45.0 90.0)
           (-70.0 20.0)
  end
  begin
     id 5 
     name ltoes
     direction 1.5356e-011 -4.21729e-011 1   
     length 1.02897   
     axis -90 7.62852e-016 20   XYZ
    dof rx
    limits (-90.0 20.0)
  end
  begin
     id 6 
     name rhipjoint
     direction -0.57612 -0.754205 0.315056   
     length 2.43216  
     axis 0 0 0  XYZ 
  end
  begin
     id 7 
     name rfemur
     direction -0.34202 -0.939693 0   
     length 7.42799   
     axis 0 0 -20   XYZ
    dof rx ry rz
    limits (-160.0 20.0)
           (-70.0 70.0)
           (-70.0 60.0)
  end
  begin
     id 8 
     name rtibia
     direction -0.34202 -0.939693 0   
     length 7.69484   
     axis 0 0 -20   XYZ
    dof rx
    limits (-10.0 170.0)
 end
 begin
     id 9 
     name rfoot
     direction -0.111837 -0.30727 0.945028   
     length 2.15769  
     axis -90 -7.62852e-016 -20   XYZ
    dof rx rz
    limits (-45.0 90.0)
           (-20.0 70.0)
  end
  begin
     id 10 
     name rtoes
     direction -1.53539e-011 -4.21878e-011 1   
     length 1.07391   
     axis -90 -7.62852e-016 -20   XYZ
    dof rx
    limits (-90.0 20.0)
  end
  begin
     id 11 
     name lowerback
     direction 0.00552624 0.990109 -0.140195   
     length 2.12403   
     axis 0 0 0   XYZ
    dof rx ry rz
    limits (-20.0 45.0)
           (-30.0 30.0)
           (-30.0 30.0)
  end
  begin
     id 12 
     name upperback
     direction 0.00361898 0.999976 -0.00584723   
     length 2.13232   
     axis 0 0 0   XYZ
    dof rx ry rz
    limits (-20.0 45.0)
           (-30.0 30.0)
           (-30.0 30.0)
  end
  begin
     id 13 
     name thorax
     direction -0.000331275 0.998253 0.0590847   
     length 2.17688   
     axis 0 0 0   XYZ
    dof rx ry rz
    limits (-20.0 45.0)
           (-30.0 30.0)
           (-30.0 30.0)
  end
  begin
     id 14 
     name lowerneck
     direction -0.0561561 0.979832 0.19177   
     length 1.64159   
     axis 0 0 0   XYZ
    dof rx ry rz
    limits (-20.0 45.0)
           (-30.0 30.0)
           (-30.0 30.0)
  end
  begin
     id 15 
     name upperneck
     direction 0.0827153 0.979385 -0.184293   
     length 1.68939   
     axis 0 0 0   XYZ
    dof rx ry rz
    limits (-20.0 45.0)
           (-30.0 30.0)
           (-30.0 30.0)
  end
  begin
     id 16
     name head
     direction 0.0278583 0.995936 -0.0856488  
     length 1.70207  
     axis 0 0 0   XYZ
    dof rx ry rz
    limits (-20.0 45.0)
           (-30.0 30.0)
           (-30.0 30.0)
  end
  begin
     id 17 
     name lclavicle
     direction 0.950993 0.301131 -0.0702275  
     length 3.41652  
     axis 0 0 0   XYZ
    dof ry rz
    limits (-20.0 10.0)
           (0.0 20.0)
  end
  begin
     id 18 
     name lhumerus
     direction 1 -4.48981e-011 -3.9662e-029   
     length 5.32955   
     axis 180 -30 -90   XYZ
    dof rx ry rz
    limits (-60.0 90.0)
           (-90.0 90.0)
           (-90.0 90.0)
  end
  begin
     id 19
     name lradius
     direction 1 -4.48925e-011 -9.0549e-027   
     length 3.69232   
     axis 180 -30 -90   XYZ
    dof rx
    limits (-10.0 170.0)
  end
  begin
     id 20
     name lwrist
     direction 1 -4.49007e-011 -1.49005e-026   
     length 1.84616   
     axis 9.0955e-015 90 90   XYZ
    dof ry
    limits (-180.0 0.0)
 end
  begin
     id 21 
     name lhand
     direction 1 -4.49016e-011 -2.98023e-026   
     length 0.536598   
     axis 1.90115e-014 90 90   XYZ
    dof rx rz
    limits (-90.0 90.0)
           (-45.0 45.0)
  end
  begin
     id 22 
     name lfingers
     direction 1 -4.48924e-011 -5.9578e-026   
     length 0.432619   
     axis 3.80223e-014 90 90   XYZ
    dof rx
    limits (0.0 90.0)
  end
  begin
     id 23
     name lthumb
     direction 0.707107 -6.34947e-011 0.707107   
     length 0.621157   
     axis -90 45 -3.84942e-014   XYZ
    dof rx rz
    limits (-45.0 45.0)
           (-45.0 45.0)
  end
  begin
     id 24 
     name rclavicle
     direction -0.955495 0.276497 -0.102848   
     length 3.36357  
     axis 0 0 0   XYZ 
    dof ry rz
    limits (-10.0 20.0)
           (-20.0 0.0)
  end
  begin
     id 25 
     name rhumerus
     direction -1 -4.48961e-011 3.30983e-027  
     length 5.23431   
     axis 180 30 90   XYZ
    dof rx ry rz
    limits (-90.0 60.0)
           (-90.0 90.0)
           (-90.0 90.0)
  end
  begin
     id 26 
     name rradius
     direction -1 -4.48965e-011 -6.63263e-027   
     length 3.55301   
     axis 180 30 90   XYZ
    dof rx
    limits (-10.0 170.0)
  end
  begin
     id 27 
     name rwrist
     direction -1 -4.48942e-011 -1.48958e-026   
     length 1.77651   
     axis 9.0955e-015 -90 -90   XYZ
    dof ry
    limits (-180.0 0.0)
  end
  begin
     id 28
     name rhand
     direction -1 -4.48977e-011 -2.97966e-026   
     length 0.772522   
     axis 1.90115e-014 -90 -90   XYZ
    dof rx rz
    limits (-90.0 90.0)
           (-45.0 45.0)
  end
  begin
     id 29
     name rfingers
     direction -1 -4.49135e-011 -5.96389e-026   
     length 0.622827   
     axis 3.80223e-014 -90 -90   XYZ
    dof rx
    limits (0.0 90.0)
  end
  begin
     id 30
     name rthumb
     direction -0.707107 -6.34969e-011 0.707107   
     length 0.894259   
     axis -90 -45 3.84942e-014   XYZ
    dof rx rz
    limits (-45.0 45.0)
           (-45.0 45.0)
  end
:hierarchy
  begin
    root lhipjoint rhipjoint lowerback
    lhipjoint lfemur
    lfemur ltibia
    ltibia lfoot
    lfoot ltoes
    rhipjoint rfemur
    rfemur rtibia
    rtibia rfoot
    rfoot rtoes
    lowerback upperback
    upperback thorax
    thorax lowerneck lclavicle rclavicle
    lowerneck upperneck
    upperneck head
    lclavicle lhumerus
    lhumerus lradius
    lradius lwrist
    lwrist lhand lthumb
    lhand lfingers
    rclavicle rhumerus
    rhumerus rradius
    rradius rwrist
    rwrist rhand rthumb
    rhand rfingers
  end

#!OML:ASF F:\VICON\USERDATA\INSTALL\rory3\rory3.ASF
:FULLY-SPECIFIED
:DEGREES
66
root -0.166842 18.17 2.65956 1.53004 -3.4338 1.19276
lowerback 5.02147 -0.288182 -2.07869
upperback -1.86203 -0.52762 0.0303056
thorax -4.7261 -0.19855 1.2456
lowerneck -18.9196 -8.04248 -14.0225
upperneck 32.9092 -10.848 10.1335
head 16.4092 -4.99618 4.63417
rclavicle 1.03665e-014 7.30534e-015
rhumerus -33.971 -9.15987 -84.8936
rradius 28.3856
rwrist 9.04918
rhand -14.6385 8.83757
rfingers 7.12502
rthumb 11.5134 -20.8262
lclavicle 1.03665e-014 7.30534e-015
lhumerus -36.1424 6.94188 84.9825
lradius 31.1159
lwrist -4.68644
lhand -16.59 26.2939
lfingers 7.12502
lthumb 9.63093 56.0538
rfemur -4.64851 1.92713 22.1333
rtibia 21.9091
rfoot -13.2029 -8.15976
rtoes 2.4406
lfemur 3.75096 0.65387 -22.887
ltibia 4.40684
lfoot -4.24946 2.07028
ltoes -5.44933
67
root -0.167758 18.169 2.65312 1.56675 -3.36251 1.21662
lowerback 5.07083 -0.286853 -2.08562
upperback -1.87109 -0.528726 0.00636073
thorax -4.76372 -0.198776 1.22526
lowerneck -18.9494 -8.02121 -13.9378
upperneck 32.8318 -10.802 10.0568
head 16.3554 -4.97398 4.59062
rclavicle 6.93465e-015 1.09332e-015
rhumerus -33.9785 -9.15075 -84.941
rradius 28.3165
rwrist 9.1595
rhand -14.6088 8.84134
rfingers 7.12502
rthumb 11.542 -20.8209
lclavicle 6.93465e-015 1.09332e-015
lhumerus -36.0864 6.94539 84.9648
lradius 31.1187
lwrist -4.76316
lhand -16.6627 26.4137
lfingers 7.12502
lthumb 9.5608 56.1767
rfemur -4.72989 1.82276 22.1349
rtibia 21.9073
rfoot -13.0673 -8.29547
rtoes 0.72627
lfemur 3.61668 0.5793 -22.9121
ltibia 4.53608
lfoot -4.28655 2.07843
ltoes -5.91367
68
root -0.170022 18.1682 2.64808 1.60003 -3.28012 1.16915
lowerback 5.07997 -0.289433 -2.03804
upperback -1.86755 -0.528733 0.012528
thorax -4.76548 -0.200127 1.205
lowerneck -18.9164 -8.0033 -13.8531
upperneck 32.7186 -10.7638 9.97317
head 16.2699 -4.95774 4.54193
rclavicle -1.77945e-015 1.17283e-014
rhumerus -33.973 -9.16437 -84.9584
rradius 28.2043
rwrist 9.15543
rhand -14.5969 9.06819
rfingers 7.12502
rthumb 11.5535 -20.5934
lclavicle -1.77945e-015 1.17283e-014
lhumerus -36.0207 6.91039 84.9712
lradius 31.1318
lwrist -4.78256
lhand -16.5334 26.5546
lfingers 7.12502
lthumb 9.68554 56.3119
rfemur -4.75279 1.79237 22.2021
rtibia 21.8685
rfoot -13.0589 -8.34371
rtoes 0.631321
lfemur 3.38216 0.494658 -22.8527
ltibia 4.88115
lfoot -4.40697 2.10354
ltoes -6.12869
69
root -0.172144 18.1681 2.64252 1.62413 -3.20629 1.1487
lowerback 5.12208 -0.293491 -2.02038
upperback -1.88708 -0.53341 0.0286471
thorax -4.80959 -0.20209 1.21266
lowerneck -18.8859 -7.9858 -13.8938
upperneck 32.6795 -10.7285 9.99267
head 16.242 -4.94605 4.56442
rclavicle -2.64826e-015 -4.12478e-015
rhumerus -33.9981 -9.16384 -84.943
rradius 28.0992
rwrist 9.15181
rhand -14.6139 9.13916
rfingers 7.12502
rthumb 11.5371 -20.5233
lclavicle -2.64826e-015 -4.12478e-015
lhumerus -36.023 6.96159 84.9784
lradius 31.1091
lwrist -4.84057
lhand -16.665 26.4916
lfingers 7.12502
lthumb 9.5586 56.2548
rfemur -4.75738 1.81758 22.2421
rtibia 21.8286
rfoot -13.0817 -8.40318
rtoes 0.746864
lfemur 3.15925 0.418275 -22.8186
ltibia 5.22926
lfoot -4.53447 2.13362
ltoes -5.99371
70
root -0.174415 18.1693 2.63586 1.62335 -3.15341 1.08266
lowerback 5.20345 -0.287027 -1.96667
upperback -1.89215 -0.521695 0.0546092
thorax -4.86169 -0.196898 1.20906
lowerneck -18.9117 -7.96948 -13.8295
upperneck 32.6482 -10.687 9.91088
head 16.2132 -4.9297 4.52355
rclavicle 4.76646e-015 2.38542e-015
rhumerus -34.0229 -9.14684 -84.9494
rradius 28.0768
rwrist 9.13932
rhand -14.6028 9.03254
rfingers 7.12502
rthumb 11.5479 -20.6293
lclavicle 4.76646e-015 2.38542e-015
lhumerus -36.0078 7.0235 84.9688
lradius 31.1065
lwrist -4.8635
lhand -16.9075 26.4797
lfingers 7.12502
lthumb 9.32456 56.2535
rfemur -4.77987 1.84101 22.3382
rtibia 21.8494
rfoot -13.0224 -8.48856
rtoes 0.65167
lfemur 3.12493 0.366493 -22.7219
ltibia 5.30068
lfoot -4.6137 2.10284
ltoes -5.3275
71
root -0.175752 18.1705 2.63115 1.61559 -3.09208 1.0602
lowerback 5.23788 -0.281721 -1.91081
upperback -1.8915 -0.511735 0.046526
thorax -4.88137 -0.193615 1.16869
lowerneck -18.9292 -7.9362 -13.7609
upperneck 32.6472 -10.6297 9.83986
head 16.1954 -4.90556 4.49196
rclavicle -1.05527e-015 3.926e-015
rhumerus -34.0653 -9.06655 -84.9943
rradius 28.079
rwrist 9.03181
rhand -14.7029 8.97348
rfingers 7.12502
rthumb 11.4513 -20.6938
lclavicle -1.05527e-015 3.926e-015
lhumerus -35.9923 7.0607 84.9405
lradius 31.1348
lwrist -4.90445
lhand -17.1038 26.7772
lfingers 7.12502
lthumb 9.13523 56.5593
rfemur -4.84496 1.777 22.3772
rtibia 21.9188
rfoot -12.9486 -8.56454
rtoes 0.377652
lfemur 3.15642 0.30602 -22.6781
ltibia 5.19975
lfoot -4.5211 2.07016
ltoes -5.6217
72
root -0.176936 18.1695 2.62722 1.63645 -3.02293 1.22328
lowerback 5.2115 -0.271256 -2.05171
upperback -1.86683 -0.509313 -0.00400982
thorax -4.84023 -0.189515 1.19486
lowerneck -19.0231 -7.92584 -13.7431
upperneck 32.6586 -10.6001 9.82411
head 16.2155 -4.88964 4.48699
rclavicle 2.76299e-015 1.14798e-014
rhumerus -34.0209 -9.0539 -85.0331
rradius 28.0546
rwrist 9.05326
rhand -15.0015 8.81604
rfingers 7.12502
rthumb 11.1633 -20.867
lclavicle 2.76299e-015 1.14798e-014
lhumerus -35.8594 7.15864 84.8896
lradius 31.0884
lwrist -5.31588
lhand -17.7124 26.1486
lfingers 7.12502
lthumb 8.54785 55.9556
rfemur -4.94199 1.72071 22.2015
rtibia 22.0053
rfoot -12.9963 -8.59287
rtoes 0.248873
lfemur 3.15986 0.231415 -22.8487
ltibia 5.06896
lfoot -4.38451 2.07543
ltoes -5.78198
